<svg width="145" height="22" viewBox="0 0 145 22" fill="none" xmlns="http://www.w3.org/2000/svg">
<path d="M8.97714 6.14327C10.6396 6.14327 11.9497 6.69441 12.9074 7.7967C13.8651 8.89899 14.344 10.3808 14.344 12.242V21.1326H10.3866V12.8925C10.3866 11.7902 10.1788 10.968 9.7632 10.4259C9.36565 9.88382 8.72415 9.61276 7.83871 9.61276C6.84484 9.61276 6.04975 9.9561 5.45343 10.6428C4.85711 11.3294 4.55895 12.2601 4.55895 13.4346V21.1326H0.601562V1.21008H4.55895V7.85091C5.75159 6.71248 7.22432 6.14327 8.97714 6.14327Z" fill="white"/>
<path d="M29.6213 19.7502C28.3745 20.9428 26.712 21.5391 24.6339 21.5391C22.5739 21.5391 20.9114 20.9338 19.6465 19.7231C18.3997 18.5124 17.7762 16.9222 17.7762 14.9525V6.49564H21.7336V14.4917C21.7336 15.5398 21.9866 16.362 22.4926 16.9583C23.0166 17.5366 23.7304 17.8257 24.6339 17.8257C25.5555 17.8257 26.2693 17.5366 26.7752 16.9583C27.2993 16.362 27.5613 15.5398 27.5613 14.4917V6.49564H31.5187V14.9525C31.5187 16.9403 30.8862 18.5395 29.6213 19.7502Z" fill="white"/>
<path d="M43.0876 6.08906C45.3103 6.08906 47.1444 6.8209 48.59 8.2846C50.0537 9.74829 50.7856 11.5915 50.7856 13.8141C50.7856 16.0367 50.0537 17.8799 48.59 19.3436C47.1444 20.8073 45.3103 21.5391 43.0876 21.5391C41.3348 21.5391 39.8079 20.997 38.5068 19.9128L38.046 21.1326H35.1186V1.21008H39.076V7.2817C40.2506 6.48661 41.5878 6.08906 43.0876 6.08906ZM39.9163 16.6602C40.6752 17.4191 41.6239 17.7986 42.7624 17.7986C43.9188 17.7986 44.8675 17.4191 45.6084 16.6602C46.3674 15.9012 46.7468 14.9525 46.7468 13.8141C46.7468 13.0552 46.5752 12.3685 46.2318 11.7541C45.9066 11.1397 45.4368 10.6608 44.8224 10.3175C44.208 9.97417 43.5213 9.8025 42.7624 9.8025C42.0215 9.8025 41.3438 9.97417 40.7294 10.3175C40.1151 10.6608 39.6362 11.1397 39.2929 11.7541C38.9495 12.3685 38.7779 13.0552 38.7779 13.8141C38.7779 14.9525 39.1573 15.9012 39.9163 16.6602Z" fill="white"/>
<path d="M53.2705 21.1326V16.9041H57.4718V21.1326H53.2705Z" fill="#B05DF4"/>
<path d="M66.1839 21.5392C64.9732 21.5392 63.898 21.3223 62.9584 20.8886C62.0368 20.4549 61.314 19.8406 60.7899 19.0455C60.284 18.2504 60.031 17.3378 60.031 16.3078H63.88C63.898 16.7415 64.0064 17.1119 64.2052 17.4191C64.4221 17.7083 64.7112 17.9251 65.0726 18.0697C65.434 18.1962 65.8496 18.2594 66.3194 18.2594C66.6989 18.2594 67.0423 18.2052 67.3494 18.0968C67.6566 17.9884 67.9096 17.8257 68.1084 17.6089C68.3072 17.374 68.4066 17.1029 68.4066 16.7957C68.4066 16.344 68.1716 16.0097 67.7018 15.7928C67.232 15.576 66.5272 15.3862 65.5876 15.2236C64.9913 15.1333 64.4943 15.0429 64.0968 14.9525C63.7173 14.8622 63.2565 14.7086 62.7144 14.4918C62.1904 14.2568 61.7657 13.9948 61.4405 13.7057C61.1333 13.4166 60.8622 13.019 60.6273 12.5131C60.3924 12.0071 60.2749 11.4198 60.2749 10.7512C60.2749 9.37787 60.817 8.25751 61.9013 7.39013C62.9855 6.52276 64.404 6.08907 66.1568 6.08907C67.9277 6.08907 69.3462 6.54083 70.4124 7.44435C71.4966 8.32979 72.0387 9.50436 72.0387 10.968H68.271C68.271 9.81155 67.5392 9.2333 66.0755 9.2333C65.4611 9.2333 64.9822 9.35979 64.6389 9.61278C64.2956 9.86576 64.1239 10.2091 64.1239 10.6428C64.1239 10.8235 64.1691 10.9952 64.2594 11.1578C64.3678 11.3024 64.4853 11.4198 64.6118 11.5102C64.7564 11.6005 64.9732 11.6909 65.2623 11.7812C65.5515 11.8535 65.7954 11.9077 65.9942 11.9438C66.1929 11.98 66.4911 12.0342 66.8886 12.1065C67.232 12.1788 67.4759 12.233 67.6205 12.2691C67.7651 12.2872 68.009 12.3324 68.3523 12.4046C68.6957 12.4769 68.9487 12.5492 69.1113 12.6215C69.292 12.6757 69.5269 12.757 69.816 12.8654C70.1232 12.9739 70.3491 13.0913 70.4937 13.2178C70.6563 13.3262 70.846 13.4617 71.0629 13.6244C71.2978 13.787 71.4785 13.9677 71.605 14.1665C71.7315 14.3653 71.858 14.5821 71.9845 14.817C72.111 15.0519 72.1923 15.323 72.2284 15.6302C72.2826 15.9374 72.3097 16.2626 72.3097 16.606C72.3097 18.1058 71.7496 19.3075 70.6292 20.211C69.5088 21.0964 68.0271 21.5392 66.1839 21.5392Z" fill="#B05DF4"/>
<path d="M82.2441 17.6089H84.033V21.1326H81.2412C80.175 21.1326 79.2444 20.9248 78.4493 20.5092C77.6723 20.0935 77.076 19.4972 76.6604 18.7202C76.2447 17.9251 76.0369 16.9855 76.0369 15.9012V9.66699H73.3806V8.82672L79.1812 2.67379H79.913V6.49566H83.9517V9.66699H79.9943V15.3862C79.9943 16.091 80.1841 16.6421 80.5635 17.0397C80.9611 17.4191 81.5213 17.6089 82.2441 17.6089Z" fill="#B05DF4"/>
<path d="M98.3904 19.7502C97.1436 20.9428 95.4811 21.5392 93.403 21.5392C91.343 21.5392 89.6806 20.9338 88.4157 19.7231C87.1688 18.5124 86.5454 16.9222 86.5454 14.9525V6.49566H90.5028V14.4918C90.5028 15.5398 90.7558 16.362 91.2617 16.9583C91.7858 17.5366 92.4995 17.8257 93.403 17.8257C94.3246 17.8257 95.0384 17.5366 95.5444 16.9583C96.0684 16.362 96.3304 15.5398 96.3304 14.4918V6.49566H100.288V14.9525C100.288 16.9403 99.6554 18.5395 98.3904 19.7502Z" fill="#B05DF4"/>
<path d="M114.649 1.2101H118.606V21.1326H115.679L115.218 19.9128C113.917 21.0151 112.39 21.5663 110.637 21.5663C109.173 21.5663 107.854 21.232 106.68 20.5634C105.505 19.8948 104.583 18.9732 103.915 17.7986C103.264 16.606 102.939 15.2778 102.939 13.8141C102.939 12.3504 103.264 11.0313 103.915 9.85673C104.583 8.68216 105.505 7.76058 106.68 7.09198C107.854 6.42337 109.173 6.08907 110.637 6.08907C112.119 6.08907 113.456 6.48662 114.649 7.28171V1.2101ZM108.089 16.6873C108.848 17.4462 109.797 17.8257 110.935 17.8257C112.092 17.8257 113.049 17.4462 113.808 16.6873C114.567 15.9103 114.947 14.9525 114.947 13.8141C114.947 12.6576 114.567 11.6999 113.808 10.9409C113.049 10.182 112.092 9.80252 110.935 9.80252C109.797 9.80252 108.848 10.182 108.089 10.9409C107.33 11.6999 106.951 12.6576 106.951 13.8141C106.951 14.9706 107.33 15.9283 108.089 16.6873Z" fill="#B05DF4"/>
<path d="M122.39 4.54406V0.857727H126.348V4.54406H122.39ZM122.39 21.1326V6.49566H126.348V21.1326H122.39Z" fill="#B05DF4"/>
<path d="M137.112 21.5392C135.612 21.5392 134.257 21.2049 133.046 20.5363C131.836 19.8677 130.887 18.9461 130.2 17.7715C129.532 16.5789 129.197 15.2597 129.197 13.8141C129.197 11.5915 129.947 9.74831 131.447 8.28461C132.947 6.82092 134.835 6.08907 137.112 6.08907C139.371 6.08907 141.25 6.82092 142.75 8.28461C144.25 9.74831 145 11.5915 145 13.8141C145 16.0187 144.241 17.8619 142.723 19.3436C141.223 20.8073 139.353 21.5392 137.112 21.5392ZM137.112 17.8257C138.251 17.8257 139.181 17.4553 139.904 16.7144C140.627 15.9554 140.988 14.9887 140.988 13.8141C140.988 12.6396 140.627 11.6818 139.904 10.9409C139.181 10.182 138.242 9.80252 137.085 9.80252C135.947 9.80252 135.016 10.182 134.293 10.9409C133.57 11.6818 133.209 12.6396 133.209 13.8141C133.209 14.3924 133.299 14.9345 133.48 15.4404C133.679 15.9464 133.95 16.3711 134.293 16.7144C134.637 17.0577 135.043 17.3288 135.513 17.5276C136.001 17.7263 136.534 17.8257 137.112 17.8257Z" fill="#B05DF4"/>
</svg>
